# xmcd CD database file
#
# Track frame offsets:
#	150
#	12186
#	32437
#	49838
#	68579
#	82486
#	106224
#	131510
#	144635
#	163812
#	183264
#	201227
#	227334
#	241585
#	270171
#	285040
#
# Disc length: 4001 seconds
#
# Revision: 0
# Processed by: cddbd v1.5.2PL0 Copyright (c) Steve Scherf et al.
# Submitted via: CDex 1.70beta2
#
DISCID=c90f9f10
DTITLE=Various Artist - Blue Mood 3 Cd2
DYEAR=2008
DGENRE=Jazz
TTITLE0=Cristin Claas - I'm Waiting
TTITLE1=Kevin Mahogany - Destiny
TTITLE2=Ulita Knaus - The Blue And Me
TTITLE3=Eliane Elias - Call Me
TTITLE4=Tony Bennett - Keep Smiling At Trouble Trouble's A Bubble
TTITLE5=Viktor Lazlo - Sweet, Soft 'n' Lazy
TTITLE6=Cecile Norby - Raised On Blue Moods
TTITLE7=Everything But The Girl - Night and Day
TTITLE8=Christine Hitt - I've Got A Crush On You
TTITLE9=Keiko Lee - Come Rain Or Come Shine
TTITLE10=Gitte Haenning - Misty
TTITLE11=Jenny Evans - Remember Me
TTITLE12=Frank Sinatra - These Foolish Things
TTITLE13=Michael Franks - A Walk In The Rain
TTITLE14=Sarah Vaughan - Black Coffee
TTITLE15=Nat King Cole - Mona Lisa
EXTD=YEAR: 2008
EXTT0=
EXTT1=
EXTT2=
EXTT3=
EXTT4=
EXTT5=
EXTT6=
EXTT7=
EXTT8=
EXTT9=
EXTT10=
EXTT11=
EXTT12=
EXTT13=
EXTT14=
EXTT15=
PLAYORDER=
